# xmcd
#
# Track frame offsets: 
#        150
#        17133
#        43295
#        63865
#        90255
#        117590
#        136305
#        153450
#        177620
#        196208
#        220145
#        234598
#
# Disc length: 3397 seconds
#
# Revision: 1
# Processed by: cddbd v1.5.2PL0 Copyright (c) Steve Scherf et al.
# Submitted via: ExactAudioCopy v0.95a5
#
DISCID=a70d430c
DTITLE=Dave Specter and The Bluebirds - Blueplicity
DYEAR=1994
DGENRE=Blues
TTITLE0=Ridin' High
TTITLE1=Sweet Serenity
TTITLE2=What Love Did To Me
TTITLE3=On The Outside Looking In
TTITLE4=Blueplicity
TTITLE5=What's Your Angle
TTITLE6=That's How Strong My Love Is
TTITLE7=Dose Of Reality
TTITLE8=Cool Azul
TTITLE9=What Have I Done Wrong
TTITLE10=You've Got Bad Intentions
TTITLE11=Cattin'
EXTD=
EXTT0=
EXTT1=
EXTT2=
EXTT3=
EXTT4=
EXTT5=
EXTT6=
EXTT7=
EXTT8=
EXTT9=
EXTT10=
EXTT11=
PLAYORDER=
